<?xml version="1.0" encoding="UTF-8"?>
<svg id="uuid-f30c672d-0219-4404-aebd-0c770d36f800" xmlns="http://www.w3.org/2000/svg" version="1.1" viewBox="0 0 79.4 106.1">
  <!-- Generator: Adobe Illustrator 30.0.0, SVG Export Plug-In . SVG Version: 2.1.1 Build 123)  -->
  <defs>
    <style>
      .st0 {
        fill: #da020e;
      }
    </style>
  </defs>
  <path id="uuid-b429f5e7-f84a-4e83-8615-71e0f25dfbea" class="st0" d="M64.6,45.7v-4.3s-1.1-1.8-4-1.8-4.5.8-4.5,1.6c0,1.2,2.5,4.5,8.5,4.5M42.3,7.6L46.5.2l3.3,7.5h5.5c-3.3,3.1-4.7,7.9-4.7,11v3.5c0,1.5-.7,3.9-.7,3.9,0,0,4.8,3.7,5.6,4.3.3.2.7.4.4,1-.4,1.1-3.7,2.5-4,2.8-.7.7-.9,1-.7,1.7.2.6.8.7,2.1.3,1.3-.4,3.9-1.8,6.1-2.7,2.2-1,5.1-.7,5.1-.7v-4.2h-8.3v-13.4l-1.5-2.4,3.7-6.5,3.7,6.6-1.5,2.3v7h4.2v-7l-1.5-2.3,3.7-6.5,3.7,6.5-1.4,2.3v7h4.2v-7l-1.5-2.3,3.7-6.5,3.7,6.5-1.5,2.3v13.4c0,0-8.3,0-8.3,0v6.2c1.9,1.8,3.7,5.8,3.7,8.2s-1.6,3.5-1.6,3.5c.5,1.9.4,2.7.2,4.4-.2,1.8-2.4,4.5-2.4,4.5v32c0,2.2-5,2-5,0v-31.4c-2.8-3.1-10.6-5.6-10.6-5.6-2.8,2.8-4.6,7.8-4.6,7.8,1.2.9,3.2,0,3.9-.8.7-.8,2.2-1.1,3-.5.8.5,1,.7.8,2-.3,1.3-.8,3.4-.8,4.8s1.7,1.2,2.9,1.3c2.5.2,2.9,3,2.7,4.6s-1,4.9-1,7,.1,4.2.3,5.3c.2,1.1.6,2.4.5,3.9-.1,2-1.3,2.3-2.6,1-1.2-1.2-18.8-19.9-18.8-19.9-1.2,3.8,3.7,10.3,5.2,12.3,1.6,2,1.5,3.5,0,4.8-1.3,1.3-4,2.1-4.5,3.3-.5,1.2,1.2,5,4.9,9.8,3.7,4.7-4.2,7.9-8.9,8.8-4.7.9-4.7-2.3-4.4-4.1.3-1.8.3-2.8.2-4.4,0-1.6-1.5-3.8-3.6-6.4-2-2.6-2-5-1.2-11.1.8-6.1.6-10,.6-10,0,0-2.1,0-5.1,0-3-.1-5.5-1.9-5.8-9.2-.2-7.3-.4-24.8-.9-26.7-.5-1.8-2.4-2.1-3.3-2.4-.9-.2-.9-1.5,0-1.9,2.2-1.1,4.8-3.8,3.8-5.4-1-1.7-4.8-1.3-7.4,0-2.6,1.2-5.3,4-6,4.8-.7.7-1.3.7-1.2,0,0-.9-.5-4.9-.8-6.2-.4-1.4-1.6-4-2-4.7-.4-.7,0-1,.7-.7.7.3,2.2.9,3.7,1.3,1.5.4,2.9-.3,3.6-1.6.7-1.4,2.1-4.4,2.8-5.8.7-1.3,1.8-1,2.7-.8.9.2,1.7.8,2.6,1.1.8.4,1.5.3,1.8-.1.3-.4.6-.6,1.1-1.6.5-1,1.1-.6,1.2-.1,2.5,15,9,15.7,9,15.7-1,2.5-3.3,6.5-3.8,7.5-.6.9-.8,2.3-1,3.3-.1,1,.4,11,1.1,14.6.7,3.6,2.9,2.2,3.7,1.1.7-1.1,2.9-5.7,2.9-5.7,0,0,.5-1.3.5-2.3s-1.8-3.3-2.2-4c-.4-.7-2-2.1-2-5.6s3.1-5.9,4.3-6.8c1.1-.9,1.1-2.2,1-3-.5-2.7-3.4-8.4-4.7-10.6-1.4-2.2-4.1-6.3-4.1-6.3h5.7L34.1,0l4,7.6h4.1s0,0,0,0ZM41.3,30.6c1.8-3,2.6-6.2,2.6-6.2h-5.3s.9,3.2,2.7,6.2M35.8,15.2c.2,1.6,1.4,2.2,2.3,1.7.9-.5.7-1.8,0-2.8-.6-1-1.9-2.1-2.3-1.9-.4.2-.2,2.1,0,3M46.4,12.2c-.4-.2-1.8.9-2.4,1.9-.6,1-.8,2.3,0,2.8.9.5,2-.1,2.3-1.7.2-.9.5-2.8,0-3"/>
</svg>